<svg xmlns="http://www.w3.org/2000/svg" viewBox="0 0 1200 300" fill="none">
  <defs>
    <linearGradient id="bg" x1="0%" y1="0%" x2="100%" y2="100%">
      <stop offset="0%" style="stop-color:#0f0c29"/>
      <stop offset="50%" style="stop-color:#302b63"/>
      <stop offset="100%" style="stop-color:#24243e"/>
    </linearGradient>
    <linearGradient id="accent" x1="0%" y1="0%" x2="100%" y2="0%">
      <stop offset="0%" style="stop-color:#00d2ff"/>
      <stop offset="100%" style="stop-color:#7b2ff7"/>
    </linearGradient>
  </defs>
  <rect width="1200" height="300" fill="url(#bg)" rx="12"/>
  <g opacity="0.08" stroke="#fff" stroke-width="0.5">
    <line x1="0" y1="50" x2="1200" y2="50"/><line x1="0" y1="100" x2="1200" y2="100"/>
    <line x1="0" y1="150" x2="1200" y2="150"/><line x1="0" y1="200" x2="1200" y2="200"/>
    <line x1="0" y1="250" x2="1200" y2="250"/>
    <line x1="200" y1="0" x2="200" y2="300"/><line x1="400" y1="0" x2="400" y2="300"/>
    <line x1="600" y1="0" x2="600" y2="300"/><line x1="800" y1="0" x2="800" y2="300"/>
    <line x1="1000" y1="0" x2="1000" y2="300"/>
  </g>
  <g transform="translate(80, 100)">
    <rect x="20" y="20" width="60" height="60" rx="8" stroke="url(#accent)" stroke-width="2" fill="none"/>
    <rect x="35" y="35" width="30" height="30" rx="4" fill="url(#accent)" opacity="0.3"/>
    <line x1="35" y1="10" x2="35" y2="20" stroke="url(#accent)" stroke-width="2"/>
    <line x1="50" y1="10" x2="50" y2="20" stroke="url(#accent)" stroke-width="2"/>
    <line x1="65" y1="10" x2="65" y2="20" stroke="url(#accent)" stroke-width="2"/>
    <line x1="35" y1="80" x2="35" y2="90" stroke="url(#accent)" stroke-width="2"/>
    <line x1="50" y1="80" x2="50" y2="90" stroke="url(#accent)" stroke-width="2"/>
    <line x1="65" y1="80" x2="65" y2="90" stroke="url(#accent)" stroke-width="2"/>
    <line x1="10" y1="35" x2="20" y2="35" stroke="url(#accent)" stroke-width="2"/>
    <line x1="10" y1="50" x2="20" y2="50" stroke="url(#accent)" stroke-width="2"/>
    <line x1="10" y1="65" x2="20" y2="65" stroke="url(#accent)" stroke-width="2"/>
    <line x1="80" y1="35" x2="90" y2="35" stroke="url(#accent)" stroke-width="2"/>
    <line x1="80" y1="50" x2="90" y2="50" stroke="url(#accent)" stroke-width="2"/>
    <line x1="80" y1="65" x2="90" y2="65" stroke="url(#accent)" stroke-width="2"/>
  </g>
  <text x="220" y="135" font-family="Segoe UI,system-ui,sans-serif" font-size="48" font-weight="700" fill="#ffffff">Curated Local AI</text>
  <rect x="220" y="155" width="200" height="3" rx="1.5" fill="url(#accent)"/>
  <text x="220" y="190" font-family="Segoe UI,system-ui,sans-serif" font-size="18" fill="#a0aec0">Tools for running AI models locally</text>
  <text x="220" y="215" font-family="Segoe UI,system-ui,sans-serif" font-size="14" fill="#718096">Inference Engines | Desktop UIs | Quantization | Fine-tuning | RAG</text>
  <circle cx="950" cy="80" r="4" fill="#00d2ff" opacity="0.6"/>
  <circle cx="1020" cy="120" r="3" fill="#7b2ff7" opacity="0.5"/>
  <circle cx="980" cy="180" r="5" fill="#00d2ff" opacity="0.4"/>
  <circle cx="1080" cy="90" r="3" fill="#7b2ff7" opacity="0.6"/>
  <circle cx="1050" cy="200" r="4" fill="#00d2ff" opacity="0.5"/>
  <line x1="950" y1="80" x2="1020" y2="120" stroke="#00d2ff" stroke-width="0.5" opacity="0.3"/>
  <line x1="1020" y1="120" x2="980" y2="180" stroke="#7b2ff7" stroke-width="0.5" opacity="0.3"/>
  <line x1="1080" y1="90" x2="1050" y2="200" stroke="#00d2ff" stroke-width="0.5" opacity="0.3"/>
</svg>